# xmcd
#
# Track frame offsets: 
#        150
#        10392
#        21640
#        35712
#        47505
#        67300
#        79470
#        95265
#        109530
#        125612
#        143717
#        161695
#        176772
#        199690
#
# Disc length: 2819 seconds
#
# Revision: 0
# Processed by: cddbd v1.5.2PL0 Copyright (c) Steve Scherf et al.
# Submitted via: ExactAudioCopy v0.99pb5
#
DISCID=c90b010e
DTITLE=Hickory Withe Bluegrass - Broken Heart
DYEAR=1994
DGENRE=Bluegrass
TTITLE0=Colorado Turnaround
TTITLE1=Give It Back
TTITLE2=Sitting Alone In The Moonlight
TTITLE3=Say You Lied
TTITLE4=Last Thing On My Mind
TTITLE5=Little Cabin Home On The Hill
TTITLE6=Don't Want To See You Cry
TTITLE7=The Medley
TTITLE8=Faithless Love
TTITLE9=Maria, Love To See You Again
TTITLE10=Evening
TTITLE11=Broken Heart Bound
TTITLE12=I Looked Up
TTITLE13=Love, Please Come Home
EXTD=
EXTT0=
EXTT1=
EXTT2=
EXTT3=
EXTT4=
EXTT5=
EXTT6=
EXTT7=
EXTT8=
EXTT9=
EXTT10=
EXTT11=
EXTT12=
EXTT13=
PLAYORDER=
